<svg xmlns="http://www.w3.org/2000/svg" viewBox="0 0 800 600" preserveAspectRatio="xMidYMid slice">
  <defs>
    <linearGradient id="cerGrad" x1="0" y1="0" x2="1" y2="1">
      <stop offset="0%" stop-color="#8A9A7E"/>
      <stop offset="100%" stop-color="#586551"/>
    </linearGradient>
  </defs>
  <rect width="800" height="600" fill="url(#cerGrad)"/>

  <!-- arco de bodas -->
  <g stroke="#F3F5EE" stroke-width="3" fill="none" opacity="0.55">
    <path d="M270 520 V300 Q270 190 400 190 Q530 190 530 300 V520"/>
    <path d="M290 250 Q400 205 510 250" opacity="0.5"/>
  </g>

  <!-- flores trepando el arco -->
  <g fill="#F3F5EE" opacity="0.55">
    <g transform="translate(276,300)"><circle cx="0" cy="-6" r="5"/><circle cx="5" cy="-2" r="5"/><circle cx="3" cy="5" r="5"/><circle cx="-3" cy="5" r="5"/><circle cx="-5" cy="-2" r="5"/></g>
    <g transform="translate(282,225) scale(0.85)"><circle cx="0" cy="-6" r="5"/><circle cx="5" cy="-2" r="5"/><circle cx="3" cy="5" r="5"/><circle cx="-3" cy="5" r="5"/><circle cx="-5" cy="-2" r="5"/></g>
    <g transform="translate(320,192) scale(0.7)"><circle cx="0" cy="-6" r="5"/><circle cx="5" cy="-2" r="5"/><circle cx="3" cy="5" r="5"/><circle cx="-3" cy="5" r="5"/><circle cx="-5" cy="-2" r="5"/></g>
    <g transform="translate(524,300)"><circle cx="0" cy="-6" r="5"/><circle cx="5" cy="-2" r="5"/><circle cx="3" cy="5" r="5"/><circle cx="-3" cy="5" r="5"/><circle cx="-5" cy="-2" r="5"/></g>
    <g transform="translate(518,225) scale(0.85)"><circle cx="0" cy="-6" r="5"/><circle cx="5" cy="-2" r="5"/><circle cx="3" cy="5" r="5"/><circle cx="-3" cy="5" r="5"/><circle cx="-5" cy="-2" r="5"/></g>
    <g transform="translate(480,192) scale(0.7)"><circle cx="0" cy="-6" r="5"/><circle cx="5" cy="-2" r="5"/><circle cx="3" cy="5" r="5"/><circle cx="-3" cy="5" r="5"/><circle cx="-5" cy="-2" r="5"/></g>
  </g>

  <!-- destello -->
  <path d="M620 130 L624 142 L636 146 L624 150 L620 162 L616 150 L604 146 L616 142 Z" fill="#F9F8F3" opacity="0.5"/>

  <text x="50%" y="93%" text-anchor="middle" font-family="Georgia, serif" font-size="20" fill="#F3F5EE" opacity="0.55" letter-spacing="3">CEREMONIA</text>
</svg>
