<svg xmlns="http://www.w3.org/2000/svg" viewBox="0 0 320 140" preserveAspectRatio="none">
  <defs>
    <linearGradient id="sheen" x1="0%" y1="0%" x2="100%" y2="100%">
      <stop offset="0%" stop-color="#FFFDF8"/>
      <stop offset="18%" stop-color="#F6EFE1"/>
      <stop offset="38%" stop-color="#EFDBCE"/>
      <stop offset="54%" stop-color="#FAF5EA"/>
      <stop offset="74%" stop-color="#DEE6D3"/>
      <stop offset="90%" stop-color="#F5EFE1"/>
      <stop offset="100%" stop-color="#FFFCF6"/>
    </linearGradient>
  </defs>
  <rect width="320" height="140" fill="url(#sheen)"/>
  <line x1="-140" y1="0" x2="0" y2="140" stroke="#4A4A4A" stroke-width="0.6" opacity="0.08"/>
    <line x1="-135.5" y1="0" x2="4.5" y2="140" stroke="#4A4A4A" stroke-width="0.6" opacity="0.08"/>
    <line x1="-131" y1="0" x2="9" y2="140" stroke="#4A4A4A" stroke-width="0.6" opacity="0.08"/>
    <line x1="-126.5" y1="0" x2="13.5" y2="140" stroke="#4A4A4A" stroke-width="0.6" opacity="0.08"/>
    <line x1="-122" y1="0" x2="18" y2="140" stroke="#4A4A4A" stroke-width="0.6" opacity="0.08"/>
    <line x1="-117.5" y1="0" x2="22.5" y2="140" stroke="#4A4A4A" stroke-width="0.6" opacity="0.08"/>
    <line x1="-113" y1="0" x2="27" y2="140" stroke="#4A4A4A" stroke-width="0.6" opacity="0.08"/>
    <line x1="-108.5" y1="0" x2="31.5" y2="140" stroke="#4A4A4A" stroke-width="0.6" opacity="0.08"/>
    <line x1="-104" y1="0" x2="36" y2="140" stroke="#4A4A4A" stroke-width="0.6" opacity="0.08"/>
    <line x1="-99.5" y1="0" x2="40.5" y2="140" stroke="#4A4A4A" stroke-width="0.6" opacity="0.08"/>
    <line x1="-95" y1="0" x2="45" y2="140" stroke="#4A4A4A" stroke-width="0.6" opacity="0.08"/>
    <line x1="-90.5" y1="0" x2="49.5" y2="140" stroke="#4A4A4A" stroke-width="0.6" opacity="0.08"/>
    <line x1="-86" y1="0" x2="54" y2="140" stroke="#4A4A4A" stroke-width="0.6" opacity="0.08"/>
    <line x1="-81.5" y1="0" x2="58.5" y2="140" stroke="#4A4A4A" stroke-width="0.6" opacity="0.08"/>
    <line x1="-77" y1="0" x2="63" y2="140" stroke="#4A4A4A" stroke-width="0.6" opacity="0.08"/>
    <line x1="-72.5" y1="0" x2="67.5" y2="140" stroke="#4A4A4A" stroke-width="0.6" opacity="0.08"/>
    <line x1="-68" y1="0" x2="72" y2="140" stroke="#4A4A4A" stroke-width="0.6" opacity="0.08"/>
    <line x1="-63.5" y1="0" x2="76.5" y2="140" stroke="#4A4A4A" stroke-width="0.6" opacity="0.08"/>
    <line x1="-59" y1="0" x2="81" y2="140" stroke="#4A4A4A" stroke-width="0.6" opacity="0.08"/>
    <line x1="-54.5" y1="0" x2="85.5" y2="140" stroke="#4A4A4A" stroke-width="0.6" opacity="0.08"/>
    <line x1="-50" y1="0" x2="90" y2="140" stroke="#4A4A4A" stroke-width="0.6" opacity="0.08"/>
    <line x1="-45.5" y1="0" x2="94.5" y2="140" stroke="#4A4A4A" stroke-width="0.6" opacity="0.08"/>
    <line x1="-41" y1="0" x2="99" y2="140" stroke="#4A4A4A" stroke-width="0.6" opacity="0.08"/>
    <line x1="-36.5" y1="0" x2="103.5" y2="140" stroke="#4A4A4A" stroke-width="0.6" opacity="0.08"/>
    <line x1="-32" y1="0" x2="108" y2="140" stroke="#4A4A4A" stroke-width="0.6" opacity="0.08"/>
    <line x1="-27.5" y1="0" x2="112.5" y2="140" stroke="#4A4A4A" stroke-width="0.6" opacity="0.08"/>
    <line x1="-23" y1="0" x2="117" y2="140" stroke="#4A4A4A" stroke-width="0.6" opacity="0.08"/>
    <line x1="-18.5" y1="0" x2="121.5" y2="140" stroke="#4A4A4A" stroke-width="0.6" opacity="0.08"/>
    <line x1="-14" y1="0" x2="126" y2="140" stroke="#4A4A4A" stroke-width="0.6" opacity="0.08"/>
    <line x1="-9.5" y1="0" x2="130.5" y2="140" stroke="#4A4A4A" stroke-width="0.6" opacity="0.08"/>
    <line x1="-5" y1="0" x2="135" y2="140" stroke="#4A4A4A" stroke-width="0.6" opacity="0.08"/>
    <line x1="-0.5" y1="0" x2="139.5" y2="140" stroke="#4A4A4A" stroke-width="0.6" opacity="0.08"/>
    <line x1="4" y1="0" x2="144" y2="140" stroke="#4A4A4A" stroke-width="0.6" opacity="0.08"/>
    <line x1="8.5" y1="0" x2="148.5" y2="140" stroke="#4A4A4A" stroke-width="0.6" opacity="0.08"/>
    <line x1="13" y1="0" x2="153" y2="140" stroke="#4A4A4A" stroke-width="0.6" opacity="0.08"/>
    <line x1="17.5" y1="0" x2="157.5" y2="140" stroke="#4A4A4A" stroke-width="0.6" opacity="0.08"/>
    <line x1="22" y1="0" x2="162" y2="140" stroke="#4A4A4A" stroke-width="0.6" opacity="0.08"/>
    <line x1="26.5" y1="0" x2="166.5" y2="140" stroke="#4A4A4A" stroke-width="0.6" opacity="0.08"/>
    <line x1="31" y1="0" x2="171" y2="140" stroke="#4A4A4A" stroke-width="0.6" opacity="0.08"/>
    <line x1="35.5" y1="0" x2="175.5" y2="140" stroke="#4A4A4A" stroke-width="0.6" opacity="0.08"/>
    <line x1="40" y1="0" x2="180" y2="140" stroke="#4A4A4A" stroke-width="0.6" opacity="0.08"/>
    <line x1="44.5" y1="0" x2="184.5" y2="140" stroke="#4A4A4A" stroke-width="0.6" opacity="0.08"/>
    <line x1="49" y1="0" x2="189" y2="140" stroke="#4A4A4A" stroke-width="0.6" opacity="0.08"/>
    <line x1="53.5" y1="0" x2="193.5" y2="140" stroke="#4A4A4A" stroke-width="0.6" opacity="0.08"/>
    <line x1="58" y1="0" x2="198" y2="140" stroke="#4A4A4A" stroke-width="0.6" opacity="0.08"/>
    <line x1="62.5" y1="0" x2="202.5" y2="140" stroke="#4A4A4A" stroke-width="0.6" opacity="0.08"/>
    <line x1="67" y1="0" x2="207" y2="140" stroke="#4A4A4A" stroke-width="0.6" opacity="0.08"/>
    <line x1="71.5" y1="0" x2="211.5" y2="140" stroke="#4A4A4A" stroke-width="0.6" opacity="0.08"/>
    <line x1="76" y1="0" x2="216" y2="140" stroke="#4A4A4A" stroke-width="0.6" opacity="0.08"/>
    <line x1="80.5" y1="0" x2="220.5" y2="140" stroke="#4A4A4A" stroke-width="0.6" opacity="0.08"/>
    <line x1="85" y1="0" x2="225" y2="140" stroke="#4A4A4A" stroke-width="0.6" opacity="0.08"/>
    <line x1="89.5" y1="0" x2="229.5" y2="140" stroke="#4A4A4A" stroke-width="0.6" opacity="0.08"/>
    <line x1="94" y1="0" x2="234" y2="140" stroke="#4A4A4A" stroke-width="0.6" opacity="0.08"/>
    <line x1="98.5" y1="0" x2="238.5" y2="140" stroke="#4A4A4A" stroke-width="0.6" opacity="0.08"/>
    <line x1="103" y1="0" x2="243" y2="140" stroke="#4A4A4A" stroke-width="0.6" opacity="0.08"/>
    <line x1="107.5" y1="0" x2="247.5" y2="140" stroke="#4A4A4A" stroke-width="0.6" opacity="0.08"/>
    <line x1="112" y1="0" x2="252" y2="140" stroke="#4A4A4A" stroke-width="0.6" opacity="0.08"/>
    <line x1="116.5" y1="0" x2="256.5" y2="140" stroke="#4A4A4A" stroke-width="0.6" opacity="0.08"/>
    <line x1="121" y1="0" x2="261" y2="140" stroke="#4A4A4A" stroke-width="0.6" opacity="0.08"/>
    <line x1="125.5" y1="0" x2="265.5" y2="140" stroke="#4A4A4A" stroke-width="0.6" opacity="0.08"/>
    <line x1="130" y1="0" x2="270" y2="140" stroke="#4A4A4A" stroke-width="0.6" opacity="0.08"/>
    <line x1="134.5" y1="0" x2="274.5" y2="140" stroke="#4A4A4A" stroke-width="0.6" opacity="0.08"/>
    <line x1="139" y1="0" x2="279" y2="140" stroke="#4A4A4A" stroke-width="0.6" opacity="0.08"/>
    <line x1="143.5" y1="0" x2="283.5" y2="140" stroke="#4A4A4A" stroke-width="0.6" opacity="0.08"/>
    <line x1="148" y1="0" x2="288" y2="140" stroke="#4A4A4A" stroke-width="0.6" opacity="0.08"/>
    <line x1="152.5" y1="0" x2="292.5" y2="140" stroke="#4A4A4A" stroke-width="0.6" opacity="0.08"/>
    <line x1="157" y1="0" x2="297" y2="140" stroke="#4A4A4A" stroke-width="0.6" opacity="0.08"/>
    <line x1="161.5" y1="0" x2="301.5" y2="140" stroke="#4A4A4A" stroke-width="0.6" opacity="0.08"/>
    <line x1="166" y1="0" x2="306" y2="140" stroke="#4A4A4A" stroke-width="0.6" opacity="0.08"/>
    <line x1="170.5" y1="0" x2="310.5" y2="140" stroke="#4A4A4A" stroke-width="0.6" opacity="0.08"/>
    <line x1="175" y1="0" x2="315" y2="140" stroke="#4A4A4A" stroke-width="0.6" opacity="0.08"/>
    <line x1="179.5" y1="0" x2="319.5" y2="140" stroke="#4A4A4A" stroke-width="0.6" opacity="0.08"/>
    <line x1="184" y1="0" x2="324" y2="140" stroke="#4A4A4A" stroke-width="0.6" opacity="0.08"/>
    <line x1="188.5" y1="0" x2="328.5" y2="140" stroke="#4A4A4A" stroke-width="0.6" opacity="0.08"/>
    <line x1="193" y1="0" x2="333" y2="140" stroke="#4A4A4A" stroke-width="0.6" opacity="0.08"/>
    <line x1="197.5" y1="0" x2="337.5" y2="140" stroke="#4A4A4A" stroke-width="0.6" opacity="0.08"/>
    <line x1="202" y1="0" x2="342" y2="140" stroke="#4A4A4A" stroke-width="0.6" opacity="0.08"/>
    <line x1="206.5" y1="0" x2="346.5" y2="140" stroke="#4A4A4A" stroke-width="0.6" opacity="0.08"/>
    <line x1="211" y1="0" x2="351" y2="140" stroke="#4A4A4A" stroke-width="0.6" opacity="0.08"/>
    <line x1="215.5" y1="0" x2="355.5" y2="140" stroke="#4A4A4A" stroke-width="0.6" opacity="0.08"/>
    <line x1="220" y1="0" x2="360" y2="140" stroke="#4A4A4A" stroke-width="0.6" opacity="0.08"/>
    <line x1="224.5" y1="0" x2="364.5" y2="140" stroke="#4A4A4A" stroke-width="0.6" opacity="0.08"/>
    <line x1="229" y1="0" x2="369" y2="140" stroke="#4A4A4A" stroke-width="0.6" opacity="0.08"/>
    <line x1="233.5" y1="0" x2="373.5" y2="140" stroke="#4A4A4A" stroke-width="0.6" opacity="0.08"/>
    <line x1="238" y1="0" x2="378" y2="140" stroke="#4A4A4A" stroke-width="0.6" opacity="0.08"/>
    <line x1="242.5" y1="0" x2="382.5" y2="140" stroke="#4A4A4A" stroke-width="0.6" opacity="0.08"/>
    <line x1="247" y1="0" x2="387" y2="140" stroke="#4A4A4A" stroke-width="0.6" opacity="0.08"/>
    <line x1="251.5" y1="0" x2="391.5" y2="140" stroke="#4A4A4A" stroke-width="0.6" opacity="0.08"/>
    <line x1="256" y1="0" x2="396" y2="140" stroke="#4A4A4A" stroke-width="0.6" opacity="0.08"/>
    <line x1="260.5" y1="0" x2="400.5" y2="140" stroke="#4A4A4A" stroke-width="0.6" opacity="0.08"/>
    <line x1="265" y1="0" x2="405" y2="140" stroke="#4A4A4A" stroke-width="0.6" opacity="0.08"/>
    <line x1="269.5" y1="0" x2="409.5" y2="140" stroke="#4A4A4A" stroke-width="0.6" opacity="0.08"/>
    <line x1="274" y1="0" x2="414" y2="140" stroke="#4A4A4A" stroke-width="0.6" opacity="0.08"/>
    <line x1="278.5" y1="0" x2="418.5" y2="140" stroke="#4A4A4A" stroke-width="0.6" opacity="0.08"/>
    <line x1="283" y1="0" x2="423" y2="140" stroke="#4A4A4A" stroke-width="0.6" opacity="0.08"/>
    <line x1="287.5" y1="0" x2="427.5" y2="140" stroke="#4A4A4A" stroke-width="0.6" opacity="0.08"/>
    <line x1="292" y1="0" x2="432" y2="140" stroke="#4A4A4A" stroke-width="0.6" opacity="0.08"/>
    <line x1="296.5" y1="0" x2="436.5" y2="140" stroke="#4A4A4A" stroke-width="0.6" opacity="0.08"/>
    <line x1="301" y1="0" x2="441" y2="140" stroke="#4A4A4A" stroke-width="0.6" opacity="0.08"/>
    <line x1="305.5" y1="0" x2="445.5" y2="140" stroke="#4A4A4A" stroke-width="0.6" opacity="0.08"/>
    <line x1="310" y1="0" x2="450" y2="140" stroke="#4A4A4A" stroke-width="0.6" opacity="0.08"/>
    <line x1="314.5" y1="0" x2="454.5" y2="140" stroke="#4A4A4A" stroke-width="0.6" opacity="0.08"/>
    <line x1="319" y1="0" x2="459" y2="140" stroke="#4A4A4A" stroke-width="0.6" opacity="0.08"/>
    <line x1="323.5" y1="0" x2="463.5" y2="140" stroke="#4A4A4A" stroke-width="0.6" opacity="0.08"/>
    <line x1="328" y1="0" x2="468" y2="140" stroke="#4A4A4A" stroke-width="0.6" opacity="0.08"/>
    <line x1="332.5" y1="0" x2="472.5" y2="140" stroke="#4A4A4A" stroke-width="0.6" opacity="0.08"/>
    <line x1="337" y1="0" x2="477" y2="140" stroke="#4A4A4A" stroke-width="0.6" opacity="0.08"/>
    <line x1="341.5" y1="0" x2="481.5" y2="140" stroke="#4A4A4A" stroke-width="0.6" opacity="0.08"/>
    <line x1="346" y1="0" x2="486" y2="140" stroke="#4A4A4A" stroke-width="0.6" opacity="0.08"/>
    <line x1="350.5" y1="0" x2="490.5" y2="140" stroke="#4A4A4A" stroke-width="0.6" opacity="0.08"/>
    <line x1="355" y1="0" x2="495" y2="140" stroke="#4A4A4A" stroke-width="0.6" opacity="0.08"/>
    <line x1="359.5" y1="0" x2="499.5" y2="140" stroke="#4A4A4A" stroke-width="0.6" opacity="0.08"/>
    <line x1="364" y1="0" x2="504" y2="140" stroke="#4A4A4A" stroke-width="0.6" opacity="0.08"/>
    <line x1="368.5" y1="0" x2="508.5" y2="140" stroke="#4A4A4A" stroke-width="0.6" opacity="0.08"/>
    <line x1="373" y1="0" x2="513" y2="140" stroke="#4A4A4A" stroke-width="0.6" opacity="0.08"/>
    <line x1="377.5" y1="0" x2="517.5" y2="140" stroke="#4A4A4A" stroke-width="0.6" opacity="0.08"/>
    <line x1="382" y1="0" x2="522" y2="140" stroke="#4A4A4A" stroke-width="0.6" opacity="0.08"/>
    <line x1="386.5" y1="0" x2="526.5" y2="140" stroke="#4A4A4A" stroke-width="0.6" opacity="0.08"/>
    <line x1="391" y1="0" x2="531" y2="140" stroke="#4A4A4A" stroke-width="0.6" opacity="0.08"/>
    <line x1="395.5" y1="0" x2="535.5" y2="140" stroke="#4A4A4A" stroke-width="0.6" opacity="0.08"/>
    <line x1="400" y1="0" x2="540" y2="140" stroke="#4A4A4A" stroke-width="0.6" opacity="0.08"/>
    <line x1="404.5" y1="0" x2="544.5" y2="140" stroke="#4A4A4A" stroke-width="0.6" opacity="0.08"/>
    <line x1="409" y1="0" x2="549" y2="140" stroke="#4A4A4A" stroke-width="0.6" opacity="0.08"/>
    <line x1="413.5" y1="0" x2="553.5" y2="140" stroke="#4A4A4A" stroke-width="0.6" opacity="0.08"/>
    <line x1="418" y1="0" x2="558" y2="140" stroke="#4A4A4A" stroke-width="0.6" opacity="0.08"/>
    <line x1="422.5" y1="0" x2="562.5" y2="140" stroke="#4A4A4A" stroke-width="0.6" opacity="0.08"/>
    <line x1="427" y1="0" x2="567" y2="140" stroke="#4A4A4A" stroke-width="0.6" opacity="0.08"/>
    <line x1="431.5" y1="0" x2="571.5" y2="140" stroke="#4A4A4A" stroke-width="0.6" opacity="0.08"/>
    <line x1="436" y1="0" x2="576" y2="140" stroke="#4A4A4A" stroke-width="0.6" opacity="0.08"/>
    <line x1="440.5" y1="0" x2="580.5" y2="140" stroke="#4A4A4A" stroke-width="0.6" opacity="0.08"/>
    <line x1="445" y1="0" x2="585" y2="140" stroke="#4A4A4A" stroke-width="0.6" opacity="0.08"/>
    <line x1="449.5" y1="0" x2="589.5" y2="140" stroke="#4A4A4A" stroke-width="0.6" opacity="0.08"/>
    <line x1="454" y1="0" x2="594" y2="140" stroke="#4A4A4A" stroke-width="0.6" opacity="0.08"/>
    <line x1="458.5" y1="0" x2="598.5" y2="140" stroke="#4A4A4A" stroke-width="0.6" opacity="0.08"/>
    <line x1="0" y1="0" x2="-140" y2="140" stroke="#4A4A4A" stroke-width="0.6" opacity="0.07"/>
    <line x1="4.5" y1="0" x2="-135.5" y2="140" stroke="#4A4A4A" stroke-width="0.6" opacity="0.07"/>
    <line x1="9" y1="0" x2="-131" y2="140" stroke="#4A4A4A" stroke-width="0.6" opacity="0.07"/>
    <line x1="13.5" y1="0" x2="-126.5" y2="140" stroke="#4A4A4A" stroke-width="0.6" opacity="0.07"/>
    <line x1="18" y1="0" x2="-122" y2="140" stroke="#4A4A4A" stroke-width="0.6" opacity="0.07"/>
    <line x1="22.5" y1="0" x2="-117.5" y2="140" stroke="#4A4A4A" stroke-width="0.6" opacity="0.07"/>
    <line x1="27" y1="0" x2="-113" y2="140" stroke="#4A4A4A" stroke-width="0.6" opacity="0.07"/>
    <line x1="31.5" y1="0" x2="-108.5" y2="140" stroke="#4A4A4A" stroke-width="0.6" opacity="0.07"/>
    <line x1="36" y1="0" x2="-104" y2="140" stroke="#4A4A4A" stroke-width="0.6" opacity="0.07"/>
    <line x1="40.5" y1="0" x2="-99.5" y2="140" stroke="#4A4A4A" stroke-width="0.6" opacity="0.07"/>
    <line x1="45" y1="0" x2="-95" y2="140" stroke="#4A4A4A" stroke-width="0.6" opacity="0.07"/>
    <line x1="49.5" y1="0" x2="-90.5" y2="140" stroke="#4A4A4A" stroke-width="0.6" opacity="0.07"/>
    <line x1="54" y1="0" x2="-86" y2="140" stroke="#4A4A4A" stroke-width="0.6" opacity="0.07"/>
    <line x1="58.5" y1="0" x2="-81.5" y2="140" stroke="#4A4A4A" stroke-width="0.6" opacity="0.07"/>
    <line x1="63" y1="0" x2="-77" y2="140" stroke="#4A4A4A" stroke-width="0.6" opacity="0.07"/>
    <line x1="67.5" y1="0" x2="-72.5" y2="140" stroke="#4A4A4A" stroke-width="0.6" opacity="0.07"/>
    <line x1="72" y1="0" x2="-68" y2="140" stroke="#4A4A4A" stroke-width="0.6" opacity="0.07"/>
    <line x1="76.5" y1="0" x2="-63.5" y2="140" stroke="#4A4A4A" stroke-width="0.6" opacity="0.07"/>
    <line x1="81" y1="0" x2="-59" y2="140" stroke="#4A4A4A" stroke-width="0.6" opacity="0.07"/>
    <line x1="85.5" y1="0" x2="-54.5" y2="140" stroke="#4A4A4A" stroke-width="0.6" opacity="0.07"/>
    <line x1="90" y1="0" x2="-50" y2="140" stroke="#4A4A4A" stroke-width="0.6" opacity="0.07"/>
    <line x1="94.5" y1="0" x2="-45.5" y2="140" stroke="#4A4A4A" stroke-width="0.6" opacity="0.07"/>
    <line x1="99" y1="0" x2="-41" y2="140" stroke="#4A4A4A" stroke-width="0.6" opacity="0.07"/>
    <line x1="103.5" y1="0" x2="-36.5" y2="140" stroke="#4A4A4A" stroke-width="0.6" opacity="0.07"/>
    <line x1="108" y1="0" x2="-32" y2="140" stroke="#4A4A4A" stroke-width="0.6" opacity="0.07"/>
    <line x1="112.5" y1="0" x2="-27.5" y2="140" stroke="#4A4A4A" stroke-width="0.6" opacity="0.07"/>
    <line x1="117" y1="0" x2="-23" y2="140" stroke="#4A4A4A" stroke-width="0.6" opacity="0.07"/>
    <line x1="121.5" y1="0" x2="-18.5" y2="140" stroke="#4A4A4A" stroke-width="0.6" opacity="0.07"/>
    <line x1="126" y1="0" x2="-14" y2="140" stroke="#4A4A4A" stroke-width="0.6" opacity="0.07"/>
    <line x1="130.5" y1="0" x2="-9.5" y2="140" stroke="#4A4A4A" stroke-width="0.6" opacity="0.07"/>
    <line x1="135" y1="0" x2="-5" y2="140" stroke="#4A4A4A" stroke-width="0.6" opacity="0.07"/>
    <line x1="139.5" y1="0" x2="-0.5" y2="140" stroke="#4A4A4A" stroke-width="0.6" opacity="0.07"/>
    <line x1="144" y1="0" x2="4" y2="140" stroke="#4A4A4A" stroke-width="0.6" opacity="0.07"/>
    <line x1="148.5" y1="0" x2="8.5" y2="140" stroke="#4A4A4A" stroke-width="0.6" opacity="0.07"/>
    <line x1="153" y1="0" x2="13" y2="140" stroke="#4A4A4A" stroke-width="0.6" opacity="0.07"/>
    <line x1="157.5" y1="0" x2="17.5" y2="140" stroke="#4A4A4A" stroke-width="0.6" opacity="0.07"/>
    <line x1="162" y1="0" x2="22" y2="140" stroke="#4A4A4A" stroke-width="0.6" opacity="0.07"/>
    <line x1="166.5" y1="0" x2="26.5" y2="140" stroke="#4A4A4A" stroke-width="0.6" opacity="0.07"/>
    <line x1="171" y1="0" x2="31" y2="140" stroke="#4A4A4A" stroke-width="0.6" opacity="0.07"/>
    <line x1="175.5" y1="0" x2="35.5" y2="140" stroke="#4A4A4A" stroke-width="0.6" opacity="0.07"/>
    <line x1="180" y1="0" x2="40" y2="140" stroke="#4A4A4A" stroke-width="0.6" opacity="0.07"/>
    <line x1="184.5" y1="0" x2="44.5" y2="140" stroke="#4A4A4A" stroke-width="0.6" opacity="0.07"/>
    <line x1="189" y1="0" x2="49" y2="140" stroke="#4A4A4A" stroke-width="0.6" opacity="0.07"/>
    <line x1="193.5" y1="0" x2="53.5" y2="140" stroke="#4A4A4A" stroke-width="0.6" opacity="0.07"/>
    <line x1="198" y1="0" x2="58" y2="140" stroke="#4A4A4A" stroke-width="0.6" opacity="0.07"/>
    <line x1="202.5" y1="0" x2="62.5" y2="140" stroke="#4A4A4A" stroke-width="0.6" opacity="0.07"/>
    <line x1="207" y1="0" x2="67" y2="140" stroke="#4A4A4A" stroke-width="0.6" opacity="0.07"/>
    <line x1="211.5" y1="0" x2="71.5" y2="140" stroke="#4A4A4A" stroke-width="0.6" opacity="0.07"/>
    <line x1="216" y1="0" x2="76" y2="140" stroke="#4A4A4A" stroke-width="0.6" opacity="0.07"/>
    <line x1="220.5" y1="0" x2="80.5" y2="140" stroke="#4A4A4A" stroke-width="0.6" opacity="0.07"/>
    <line x1="225" y1="0" x2="85" y2="140" stroke="#4A4A4A" stroke-width="0.6" opacity="0.07"/>
    <line x1="229.5" y1="0" x2="89.5" y2="140" stroke="#4A4A4A" stroke-width="0.6" opacity="0.07"/>
    <line x1="234" y1="0" x2="94" y2="140" stroke="#4A4A4A" stroke-width="0.6" opacity="0.07"/>
    <line x1="238.5" y1="0" x2="98.5" y2="140" stroke="#4A4A4A" stroke-width="0.6" opacity="0.07"/>
    <line x1="243" y1="0" x2="103" y2="140" stroke="#4A4A4A" stroke-width="0.6" opacity="0.07"/>
    <line x1="247.5" y1="0" x2="107.5" y2="140" stroke="#4A4A4A" stroke-width="0.6" opacity="0.07"/>
    <line x1="252" y1="0" x2="112" y2="140" stroke="#4A4A4A" stroke-width="0.6" opacity="0.07"/>
    <line x1="256.5" y1="0" x2="116.5" y2="140" stroke="#4A4A4A" stroke-width="0.6" opacity="0.07"/>
    <line x1="261" y1="0" x2="121" y2="140" stroke="#4A4A4A" stroke-width="0.6" opacity="0.07"/>
    <line x1="265.5" y1="0" x2="125.5" y2="140" stroke="#4A4A4A" stroke-width="0.6" opacity="0.07"/>
    <line x1="270" y1="0" x2="130" y2="140" stroke="#4A4A4A" stroke-width="0.6" opacity="0.07"/>
    <line x1="274.5" y1="0" x2="134.5" y2="140" stroke="#4A4A4A" stroke-width="0.6" opacity="0.07"/>
    <line x1="279" y1="0" x2="139" y2="140" stroke="#4A4A4A" stroke-width="0.6" opacity="0.07"/>
    <line x1="283.5" y1="0" x2="143.5" y2="140" stroke="#4A4A4A" stroke-width="0.6" opacity="0.07"/>
    <line x1="288" y1="0" x2="148" y2="140" stroke="#4A4A4A" stroke-width="0.6" opacity="0.07"/>
    <line x1="292.5" y1="0" x2="152.5" y2="140" stroke="#4A4A4A" stroke-width="0.6" opacity="0.07"/>
    <line x1="297" y1="0" x2="157" y2="140" stroke="#4A4A4A" stroke-width="0.6" opacity="0.07"/>
    <line x1="301.5" y1="0" x2="161.5" y2="140" stroke="#4A4A4A" stroke-width="0.6" opacity="0.07"/>
    <line x1="306" y1="0" x2="166" y2="140" stroke="#4A4A4A" stroke-width="0.6" opacity="0.07"/>
    <line x1="310.5" y1="0" x2="170.5" y2="140" stroke="#4A4A4A" stroke-width="0.6" opacity="0.07"/>
    <line x1="315" y1="0" x2="175" y2="140" stroke="#4A4A4A" stroke-width="0.6" opacity="0.07"/>
    <line x1="319.5" y1="0" x2="179.5" y2="140" stroke="#4A4A4A" stroke-width="0.6" opacity="0.07"/>
    <line x1="324" y1="0" x2="184" y2="140" stroke="#4A4A4A" stroke-width="0.6" opacity="0.07"/>
    <line x1="328.5" y1="0" x2="188.5" y2="140" stroke="#4A4A4A" stroke-width="0.6" opacity="0.07"/>
    <line x1="333" y1="0" x2="193" y2="140" stroke="#4A4A4A" stroke-width="0.6" opacity="0.07"/>
    <line x1="337.5" y1="0" x2="197.5" y2="140" stroke="#4A4A4A" stroke-width="0.6" opacity="0.07"/>
    <line x1="342" y1="0" x2="202" y2="140" stroke="#4A4A4A" stroke-width="0.6" opacity="0.07"/>
    <line x1="346.5" y1="0" x2="206.5" y2="140" stroke="#4A4A4A" stroke-width="0.6" opacity="0.07"/>
    <line x1="351" y1="0" x2="211" y2="140" stroke="#4A4A4A" stroke-width="0.6" opacity="0.07"/>
    <line x1="355.5" y1="0" x2="215.5" y2="140" stroke="#4A4A4A" stroke-width="0.6" opacity="0.07"/>
    <line x1="360" y1="0" x2="220" y2="140" stroke="#4A4A4A" stroke-width="0.6" opacity="0.07"/>
    <line x1="364.5" y1="0" x2="224.5" y2="140" stroke="#4A4A4A" stroke-width="0.6" opacity="0.07"/>
    <line x1="369" y1="0" x2="229" y2="140" stroke="#4A4A4A" stroke-width="0.6" opacity="0.07"/>
    <line x1="373.5" y1="0" x2="233.5" y2="140" stroke="#4A4A4A" stroke-width="0.6" opacity="0.07"/>
    <line x1="378" y1="0" x2="238" y2="140" stroke="#4A4A4A" stroke-width="0.6" opacity="0.07"/>
    <line x1="382.5" y1="0" x2="242.5" y2="140" stroke="#4A4A4A" stroke-width="0.6" opacity="0.07"/>
    <line x1="387" y1="0" x2="247" y2="140" stroke="#4A4A4A" stroke-width="0.6" opacity="0.07"/>
    <line x1="391.5" y1="0" x2="251.5" y2="140" stroke="#4A4A4A" stroke-width="0.6" opacity="0.07"/>
    <line x1="396" y1="0" x2="256" y2="140" stroke="#4A4A4A" stroke-width="0.6" opacity="0.07"/>
    <line x1="400.5" y1="0" x2="260.5" y2="140" stroke="#4A4A4A" stroke-width="0.6" opacity="0.07"/>
    <line x1="405" y1="0" x2="265" y2="140" stroke="#4A4A4A" stroke-width="0.6" opacity="0.07"/>
    <line x1="409.5" y1="0" x2="269.5" y2="140" stroke="#4A4A4A" stroke-width="0.6" opacity="0.07"/>
    <line x1="414" y1="0" x2="274" y2="140" stroke="#4A4A4A" stroke-width="0.6" opacity="0.07"/>
    <line x1="418.5" y1="0" x2="278.5" y2="140" stroke="#4A4A4A" stroke-width="0.6" opacity="0.07"/>
    <line x1="423" y1="0" x2="283" y2="140" stroke="#4A4A4A" stroke-width="0.6" opacity="0.07"/>
    <line x1="427.5" y1="0" x2="287.5" y2="140" stroke="#4A4A4A" stroke-width="0.6" opacity="0.07"/>
    <line x1="432" y1="0" x2="292" y2="140" stroke="#4A4A4A" stroke-width="0.6" opacity="0.07"/>
    <line x1="436.5" y1="0" x2="296.5" y2="140" stroke="#4A4A4A" stroke-width="0.6" opacity="0.07"/>
    <line x1="441" y1="0" x2="301" y2="140" stroke="#4A4A4A" stroke-width="0.6" opacity="0.07"/>
    <line x1="445.5" y1="0" x2="305.5" y2="140" stroke="#4A4A4A" stroke-width="0.6" opacity="0.07"/>
    <line x1="450" y1="0" x2="310" y2="140" stroke="#4A4A4A" stroke-width="0.6" opacity="0.07"/>
    <line x1="454.5" y1="0" x2="314.5" y2="140" stroke="#4A4A4A" stroke-width="0.6" opacity="0.07"/>
    <line x1="459" y1="0" x2="319" y2="140" stroke="#4A4A4A" stroke-width="0.6" opacity="0.07"/>
    <line x1="463.5" y1="0" x2="323.5" y2="140" stroke="#4A4A4A" stroke-width="0.6" opacity="0.07"/>
    <line x1="468" y1="0" x2="328" y2="140" stroke="#4A4A4A" stroke-width="0.6" opacity="0.07"/>
    <line x1="472.5" y1="0" x2="332.5" y2="140" stroke="#4A4A4A" stroke-width="0.6" opacity="0.07"/>
    <line x1="477" y1="0" x2="337" y2="140" stroke="#4A4A4A" stroke-width="0.6" opacity="0.07"/>
    <line x1="481.5" y1="0" x2="341.5" y2="140" stroke="#4A4A4A" stroke-width="0.6" opacity="0.07"/>
    <line x1="486" y1="0" x2="346" y2="140" stroke="#4A4A4A" stroke-width="0.6" opacity="0.07"/>
    <line x1="490.5" y1="0" x2="350.5" y2="140" stroke="#4A4A4A" stroke-width="0.6" opacity="0.07"/>
    <line x1="495" y1="0" x2="355" y2="140" stroke="#4A4A4A" stroke-width="0.6" opacity="0.07"/>
    <line x1="499.5" y1="0" x2="359.5" y2="140" stroke="#4A4A4A" stroke-width="0.6" opacity="0.07"/>
    <line x1="504" y1="0" x2="364" y2="140" stroke="#4A4A4A" stroke-width="0.6" opacity="0.07"/>
    <line x1="508.5" y1="0" x2="368.5" y2="140" stroke="#4A4A4A" stroke-width="0.6" opacity="0.07"/>
    <line x1="513" y1="0" x2="373" y2="140" stroke="#4A4A4A" stroke-width="0.6" opacity="0.07"/>
    <line x1="517.5" y1="0" x2="377.5" y2="140" stroke="#4A4A4A" stroke-width="0.6" opacity="0.07"/>
    <line x1="522" y1="0" x2="382" y2="140" stroke="#4A4A4A" stroke-width="0.6" opacity="0.07"/>
    <line x1="526.5" y1="0" x2="386.5" y2="140" stroke="#4A4A4A" stroke-width="0.6" opacity="0.07"/>
    <line x1="531" y1="0" x2="391" y2="140" stroke="#4A4A4A" stroke-width="0.6" opacity="0.07"/>
    <line x1="535.5" y1="0" x2="395.5" y2="140" stroke="#4A4A4A" stroke-width="0.6" opacity="0.07"/>
    <line x1="540" y1="0" x2="400" y2="140" stroke="#4A4A4A" stroke-width="0.6" opacity="0.07"/>
    <line x1="544.5" y1="0" x2="404.5" y2="140" stroke="#4A4A4A" stroke-width="0.6" opacity="0.07"/>
    <line x1="549" y1="0" x2="409" y2="140" stroke="#4A4A4A" stroke-width="0.6" opacity="0.07"/>
    <line x1="553.5" y1="0" x2="413.5" y2="140" stroke="#4A4A4A" stroke-width="0.6" opacity="0.07"/>
    <line x1="558" y1="0" x2="418" y2="140" stroke="#4A4A4A" stroke-width="0.6" opacity="0.07"/>
    <line x1="562.5" y1="0" x2="422.5" y2="140" stroke="#4A4A4A" stroke-width="0.6" opacity="0.07"/>
    <line x1="567" y1="0" x2="427" y2="140" stroke="#4A4A4A" stroke-width="0.6" opacity="0.07"/>
    <line x1="571.5" y1="0" x2="431.5" y2="140" stroke="#4A4A4A" stroke-width="0.6" opacity="0.07"/>
    <line x1="576" y1="0" x2="436" y2="140" stroke="#4A4A4A" stroke-width="0.6" opacity="0.07"/>
    <line x1="580.5" y1="0" x2="440.5" y2="140" stroke="#4A4A4A" stroke-width="0.6" opacity="0.07"/>
    <line x1="585" y1="0" x2="445" y2="140" stroke="#4A4A4A" stroke-width="0.6" opacity="0.07"/>
    <line x1="589.5" y1="0" x2="449.5" y2="140" stroke="#4A4A4A" stroke-width="0.6" opacity="0.07"/>
    <line x1="594" y1="0" x2="454" y2="140" stroke="#4A4A4A" stroke-width="0.6" opacity="0.07"/>
    <line x1="598.5" y1="0" x2="458.5" y2="140" stroke="#4A4A4A" stroke-width="0.6" opacity="0.07"/>
    
  <line x1="41.3" y1="100.3" x2="37.3" y2="106.1" stroke="#A08D6E" stroke-width="1.56" opacity="0.55" stroke-linecap="round"/>
    <line x1="18.9" y1="77.7" x2="21.5" y2="72.6" stroke="#A08D6E" stroke-width="1.57" opacity="0.34" stroke-linecap="round"/>
    <line x1="6.6" y1="64.9" x2="10.7" y2="69.3" stroke="#A08D6E" stroke-width="1.35" opacity="0.46" stroke-linecap="round"/>
    <line x1="227.0" y1="127.8" x2="226.5" y2="121.3" stroke="#8B9A7C" stroke-width="1.60" opacity="0.35" stroke-linecap="round"/>
    <line x1="258.1" y1="126.6" x2="259.1" y2="117.8" stroke="#BA9686" stroke-width="1.09" opacity="0.59" stroke-linecap="round"/>
    <line x1="118.3" y1="134.8" x2="120.5" y2="131.5" stroke="#FFFFFF" stroke-width="1.16" opacity="0.34" stroke-linecap="round"/>
    <line x1="200.5" y1="122.5" x2="193.2" y2="121.3" stroke="#BA9686" stroke-width="1.18" opacity="0.48" stroke-linecap="round"/>
    <line x1="168.6" y1="110.7" x2="176.8" y2="110.0" stroke="#BA9686" stroke-width="1.06" opacity="0.45" stroke-linecap="round"/>
    <line x1="285.1" y1="47.5" x2="291.3" y2="45.4" stroke="#FFFFFF" stroke-width="1.50" opacity="0.33" stroke-linecap="round"/>
    <line x1="60.2" y1="7.3" x2="51.9" y2="7.4" stroke="#8B9A7C" stroke-width="1.47" opacity="0.49" stroke-linecap="round"/>
    <line x1="225.2" y1="55.2" x2="233.0" y2="55.2" stroke="#FFFFFF" stroke-width="0.94" opacity="0.45" stroke-linecap="round"/>
    <line x1="151.2" y1="81.2" x2="146.1" y2="83.0" stroke="#FFFFFF" stroke-width="0.70" opacity="0.38" stroke-linecap="round"/>
    <line x1="59.9" y1="86.0" x2="58.7" y2="90.8" stroke="#FFFFFF" stroke-width="1.51" opacity="0.49" stroke-linecap="round"/>
    <line x1="223.0" y1="106.7" x2="229.6" y2="109.9" stroke="#FFFFFF" stroke-width="1.25" opacity="0.46" stroke-linecap="round"/>
    <line x1="267.2" y1="43.6" x2="263.6" y2="42.5" stroke="#A08D6E" stroke-width="1.19" opacity="0.38" stroke-linecap="round"/>
    <line x1="121.9" y1="124.6" x2="123.5" y2="127.2" stroke="#FFFFFF" stroke-width="0.95" opacity="0.34" stroke-linecap="round"/>
    <line x1="129.8" y1="86.6" x2="136.9" y2="91.2" stroke="#A08D6E" stroke-width="1.38" opacity="0.42" stroke-linecap="round"/>
    <line x1="314.2" y1="136.2" x2="320.0" y2="135.4" stroke="#A08D6E" stroke-width="0.83" opacity="0.39" stroke-linecap="round"/>
    <line x1="308.2" y1="119.8" x2="304.5" y2="122.1" stroke="#A08D6E" stroke-width="1.60" opacity="0.53" stroke-linecap="round"/>
    <line x1="142.7" y1="130.0" x2="146.0" y2="136.0" stroke="#8B9A7C" stroke-width="1.36" opacity="0.49" stroke-linecap="round"/>
    <line x1="4.0" y1="10.7" x2="-1.9" y2="10.9" stroke="#BA9686" stroke-width="1.02" opacity="0.39" stroke-linecap="round"/>
    <line x1="137.6" y1="110.9" x2="134.9" y2="118.0" stroke="#FFFFFF" stroke-width="1.22" opacity="0.35" stroke-linecap="round"/>
    <line x1="47.6" y1="110.7" x2="47.1" y2="106.3" stroke="#8B9A7C" stroke-width="0.95" opacity="0.52" stroke-linecap="round"/>
    <line x1="244.4" y1="135.0" x2="242.1" y2="127.9" stroke="#8B9A7C" stroke-width="0.80" opacity="0.36" stroke-linecap="round"/>
    <line x1="156.0" y1="122.0" x2="162.3" y2="120.6" stroke="#BA9686" stroke-width="0.77" opacity="0.59" stroke-linecap="round"/>
    <line x1="192.1" y1="19.0" x2="192.4" y2="9.5" stroke="#BA9686" stroke-width="0.89" opacity="0.55" stroke-linecap="round"/>
    <line x1="229.3" y1="93.7" x2="235.4" y2="91.2" stroke="#8B9A7C" stroke-width="1.51" opacity="0.36" stroke-linecap="round"/>
    <line x1="103.2" y1="105.5" x2="110.8" y2="105.4" stroke="#8B9A7C" stroke-width="0.75" opacity="0.49" stroke-linecap="round"/>
    <line x1="152.0" y1="91.9" x2="157.3" y2="92.5" stroke="#FFFFFF" stroke-width="1.33" opacity="0.58" stroke-linecap="round"/>
    <line x1="7.4" y1="48.8" x2="1.3" y2="45.1" stroke="#BA9686" stroke-width="0.77" opacity="0.41" stroke-linecap="round"/>
    <line x1="195.5" y1="119.5" x2="192.3" y2="114.5" stroke="#A08D6E" stroke-width="1.03" opacity="0.46" stroke-linecap="round"/>
    <line x1="245.7" y1="23.7" x2="237.6" y2="27.1" stroke="#A08D6E" stroke-width="0.72" opacity="0.57" stroke-linecap="round"/>
    <line x1="212.4" y1="81.2" x2="209.2" y2="82.2" stroke="#8B9A7C" stroke-width="0.78" opacity="0.42" stroke-linecap="round"/>
    <line x1="249.5" y1="51.7" x2="250.6" y2="55.5" stroke="#BA9686" stroke-width="1.02" opacity="0.56" stroke-linecap="round"/>
    <line x1="27.2" y1="34.8" x2="34.1" y2="34.4" stroke="#8B9A7C" stroke-width="1.17" opacity="0.45" stroke-linecap="round"/>
    <line x1="203.5" y1="124.1" x2="200.9" y2="117.6" stroke="#FFFFFF" stroke-width="0.70" opacity="0.55" stroke-linecap="round"/>
    <line x1="198.8" y1="53.2" x2="199.9" y2="62.8" stroke="#FFFFFF" stroke-width="1.41" opacity="0.55" stroke-linecap="round"/>
    <line x1="217.7" y1="3.0" x2="214.1" y2="7.7" stroke="#BA9686" stroke-width="1.37" opacity="0.58" stroke-linecap="round"/>
    <line x1="246.8" y1="66.8" x2="243.1" y2="67.8" stroke="#A08D6E" stroke-width="1.60" opacity="0.42" stroke-linecap="round"/>
    <line x1="301.6" y1="134.2" x2="301.4" y2="137.7" stroke="#FFFFFF" stroke-width="0.98" opacity="0.41" stroke-linecap="round"/>
    <line x1="279.7" y1="119.3" x2="282.4" y2="115.3" stroke="#BA9686" stroke-width="0.86" opacity="0.46" stroke-linecap="round"/>
    <line x1="88.9" y1="29.9" x2="90.8" y2="36.9" stroke="#8B9A7C" stroke-width="1.34" opacity="0.51" stroke-linecap="round"/>
    <line x1="51.6" y1="85.5" x2="48.1" y2="89.1" stroke="#FFFFFF" stroke-width="0.79" opacity="0.39" stroke-linecap="round"/>
    <line x1="121.8" y1="26.9" x2="117.1" y2="24.5" stroke="#8B9A7C" stroke-width="0.71" opacity="0.45" stroke-linecap="round"/>
    <line x1="242.3" y1="95.9" x2="240.6" y2="103.3" stroke="#FFFFFF" stroke-width="1.01" opacity="0.35" stroke-linecap="round"/>
    <line x1="133.8" y1="112.8" x2="130.3" y2="112.0" stroke="#BA9686" stroke-width="0.73" opacity="0.43" stroke-linecap="round"/>
    <line x1="75.9" y1="17.2" x2="82.8" y2="18.6" stroke="#8B9A7C" stroke-width="0.72" opacity="0.40" stroke-linecap="round"/>
    <line x1="21.5" y1="76.9" x2="27.8" y2="76.5" stroke="#FFFFFF" stroke-width="1.04" opacity="0.34" stroke-linecap="round"/>
    <line x1="228.4" y1="94.3" x2="222.9" y2="96.1" stroke="#A08D6E" stroke-width="1.03" opacity="0.39" stroke-linecap="round"/>
    <line x1="110.6" y1="54.7" x2="106.2" y2="61.6" stroke="#8B9A7C" stroke-width="1.01" opacity="0.33" stroke-linecap="round"/>
    <line x1="99.9" y1="97.6" x2="101.3" y2="105.5" stroke="#A08D6E" stroke-width="0.97" opacity="0.58" stroke-linecap="round"/>
    <line x1="250.7" y1="35.7" x2="247.6" y2="30.5" stroke="#A08D6E" stroke-width="0.90" opacity="0.37" stroke-linecap="round"/>
    <line x1="239.1" y1="51.0" x2="242.7" y2="56.6" stroke="#FFFFFF" stroke-width="1.17" opacity="0.36" stroke-linecap="round"/>
    <line x1="243.8" y1="122.2" x2="251.8" y2="122.5" stroke="#FFFFFF" stroke-width="0.96" opacity="0.51" stroke-linecap="round"/>
    <line x1="186.1" y1="53.0" x2="191.4" y2="57.0" stroke="#BA9686" stroke-width="1.43" opacity="0.34" stroke-linecap="round"/>
    <line x1="138.1" y1="42.4" x2="137.3" y2="36.5" stroke="#FFFFFF" stroke-width="1.48" opacity="0.52" stroke-linecap="round"/>
    <line x1="196.2" y1="95.7" x2="195.6" y2="102.5" stroke="#FFFFFF" stroke-width="1.41" opacity="0.50" stroke-linecap="round"/>
    <line x1="157.8" y1="134.5" x2="166.0" y2="134.9" stroke="#8B9A7C" stroke-width="0.77" opacity="0.35" stroke-linecap="round"/>
    <line x1="41.4" y1="99.3" x2="39.4" y2="103.8" stroke="#8B9A7C" stroke-width="1.59" opacity="0.53" stroke-linecap="round"/>
    <line x1="192.5" y1="130.5" x2="199.6" y2="134.5" stroke="#BA9686" stroke-width="1.27" opacity="0.52" stroke-linecap="round"/>
    <line x1="212.6" y1="54.0" x2="207.4" y2="50.7" stroke="#A08D6E" stroke-width="0.98" opacity="0.39" stroke-linecap="round"/>
    <line x1="318.0" y1="74.6" x2="318.0" y2="82.6" stroke="#A08D6E" stroke-width="1.44" opacity="0.50" stroke-linecap="round"/>
    <line x1="131.2" y1="28.1" x2="127.6" y2="26.7" stroke="#A08D6E" stroke-width="1.39" opacity="0.47" stroke-linecap="round"/>
    <line x1="128.5" y1="81.8" x2="131.3" y2="76.9" stroke="#FFFFFF" stroke-width="1.00" opacity="0.60" stroke-linecap="round"/>
    <line x1="183.1" y1="79.3" x2="190.8" y2="74.3" stroke="#8B9A7C" stroke-width="1.09" opacity="0.54" stroke-linecap="round"/>
    <line x1="158.3" y1="42.1" x2="150.1" y2="40.0" stroke="#8B9A7C" stroke-width="0.71" opacity="0.54" stroke-linecap="round"/>
    <line x1="311.7" y1="108.7" x2="316.6" y2="103.0" stroke="#A08D6E" stroke-width="1.26" opacity="0.37" stroke-linecap="round"/>
    <line x1="134.2" y1="8.8" x2="129.3" y2="6.5" stroke="#FFFFFF" stroke-width="1.03" opacity="0.49" stroke-linecap="round"/>
    <line x1="100.4" y1="119.7" x2="104.1" y2="125.4" stroke="#8B9A7C" stroke-width="1.59" opacity="0.55" stroke-linecap="round"/>
    <line x1="236.3" y1="85.1" x2="231.3" y2="90.9" stroke="#8B9A7C" stroke-width="1.26" opacity="0.49" stroke-linecap="round"/>
    <line x1="267.1" y1="134.5" x2="270.1" y2="133.7" stroke="#8B9A7C" stroke-width="0.94" opacity="0.50" stroke-linecap="round"/>
    <line x1="29.7" y1="120.8" x2="21.6" y2="119.5" stroke="#BA9686" stroke-width="1.03" opacity="0.34" stroke-linecap="round"/>
    <line x1="218.3" y1="23.4" x2="212.3" y2="28.7" stroke="#8B9A7C" stroke-width="1.48" opacity="0.58" stroke-linecap="round"/>
    <line x1="303.2" y1="85.7" x2="311.3" y2="82.9" stroke="#BA9686" stroke-width="1.58" opacity="0.59" stroke-linecap="round"/>
    <line x1="46.7" y1="21.3" x2="45.1" y2="30.9" stroke="#BA9686" stroke-width="0.96" opacity="0.57" stroke-linecap="round"/>
    <line x1="268.7" y1="75.3" x2="265.0" y2="78.2" stroke="#FFFFFF" stroke-width="1.20" opacity="0.51" stroke-linecap="round"/>
    <line x1="114.7" y1="76.3" x2="111.4" y2="84.5" stroke="#BA9686" stroke-width="0.84" opacity="0.48" stroke-linecap="round"/>
    <line x1="134.9" y1="2.5" x2="134.1" y2="10.6" stroke="#8B9A7C" stroke-width="0.75" opacity="0.46" stroke-linecap="round"/>
    <line x1="168.2" y1="93.5" x2="164.1" y2="94.1" stroke="#8B9A7C" stroke-width="0.83" opacity="0.40" stroke-linecap="round"/>
    <line x1="103.5" y1="58.6" x2="109.0" y2="56.2" stroke="#BA9686" stroke-width="1.21" opacity="0.45" stroke-linecap="round"/>
    <line x1="18.7" y1="85.0" x2="15.8" y2="83.7" stroke="#BA9686" stroke-width="1.31" opacity="0.42" stroke-linecap="round"/>
    <line x1="236.7" y1="55.6" x2="231.6" y2="53.5" stroke="#BA9686" stroke-width="0.74" opacity="0.34" stroke-linecap="round"/>
    <line x1="132.5" y1="46.6" x2="138.3" y2="45.1" stroke="#A08D6E" stroke-width="1.24" opacity="0.44" stroke-linecap="round"/>
    <line x1="145.0" y1="128.3" x2="153.6" y2="124.3" stroke="#8B9A7C" stroke-width="0.89" opacity="0.55" stroke-linecap="round"/>
    <line x1="162.9" y1="47.0" x2="164.5" y2="51.2" stroke="#BA9686" stroke-width="1.52" opacity="0.55" stroke-linecap="round"/>
    <line x1="129.8" y1="131.2" x2="122.2" y2="129.8" stroke="#8B9A7C" stroke-width="1.57" opacity="0.60" stroke-linecap="round"/>
    <line x1="193.7" y1="95.8" x2="199.4" y2="101.1" stroke="#FFFFFF" stroke-width="0.74" opacity="0.56" stroke-linecap="round"/>
    <line x1="115.0" y1="54.8" x2="109.9" y2="52.8" stroke="#FFFFFF" stroke-width="0.91" opacity="0.49" stroke-linecap="round"/>
    <line x1="306.7" y1="103.2" x2="315.3" y2="104.1" stroke="#A08D6E" stroke-width="1.22" opacity="0.49" stroke-linecap="round"/>
    <line x1="149.7" y1="59.8" x2="147.3" y2="53.1" stroke="#FFFFFF" stroke-width="0.81" opacity="0.37" stroke-linecap="round"/>
    <line x1="236.6" y1="17.0" x2="240.4" y2="21.0" stroke="#BA9686" stroke-width="1.06" opacity="0.47" stroke-linecap="round"/>
    <line x1="25.8" y1="4.1" x2="27.9" y2="8.8" stroke="#8B9A7C" stroke-width="0.85" opacity="0.36" stroke-linecap="round"/>
    <line x1="284.1" y1="27.4" x2="281.5" y2="20.9" stroke="#BA9686" stroke-width="1.11" opacity="0.55" stroke-linecap="round"/>
    <line x1="74.6" y1="132.9" x2="70.6" y2="125.6" stroke="#A08D6E" stroke-width="0.85" opacity="0.41" stroke-linecap="round"/>
    <line x1="265.4" y1="53.5" x2="261.1" y2="55.7" stroke="#BA9686" stroke-width="0.98" opacity="0.33" stroke-linecap="round"/>
    <line x1="178.7" y1="106.8" x2="181.6" y2="100.0" stroke="#FFFFFF" stroke-width="1.58" opacity="0.39" stroke-linecap="round"/>
    <line x1="57.9" y1="109.7" x2="62.1" y2="106.3" stroke="#BA9686" stroke-width="1.20" opacity="0.43" stroke-linecap="round"/>
    <line x1="106.2" y1="53.9" x2="107.4" y2="47.2" stroke="#A08D6E" stroke-width="1.23" opacity="0.49" stroke-linecap="round"/>
    <line x1="5.1" y1="37.2" x2="2.8" y2="46.7" stroke="#BA9686" stroke-width="1.44" opacity="0.59" stroke-linecap="round"/>
    <line x1="210.4" y1="43.9" x2="206.2" y2="45.3" stroke="#FFFFFF" stroke-width="1.51" opacity="0.60" stroke-linecap="round"/>
    <line x1="233.9" y1="67.4" x2="237.4" y2="66.5" stroke="#8B9A7C" stroke-width="1.48" opacity="0.43" stroke-linecap="round"/>
    <line x1="255.3" y1="120.3" x2="250.4" y2="124.6" stroke="#BA9686" stroke-width="0.73" opacity="0.44" stroke-linecap="round"/>
    <line x1="26.5" y1="103.9" x2="25.3" y2="109.0" stroke="#8B9A7C" stroke-width="1.34" opacity="0.34" stroke-linecap="round"/>
    <line x1="99.0" y1="109.3" x2="99.9" y2="104.2" stroke="#8B9A7C" stroke-width="0.83" opacity="0.48" stroke-linecap="round"/>
    <line x1="132.5" y1="32.6" x2="133.5" y2="27.8" stroke="#BA9686" stroke-width="1.07" opacity="0.50" stroke-linecap="round"/>
    <line x1="256.9" y1="103.4" x2="253.3" y2="106.5" stroke="#A08D6E" stroke-width="1.07" opacity="0.53" stroke-linecap="round"/>
    <line x1="156.3" y1="115.3" x2="155.5" y2="119.8" stroke="#8B9A7C" stroke-width="1.50" opacity="0.59" stroke-linecap="round"/>
    <line x1="66.4" y1="101.4" x2="69.7" y2="103.6" stroke="#BA9686" stroke-width="0.94" opacity="0.39" stroke-linecap="round"/>
    <line x1="78.8" y1="65.0" x2="75.9" y2="60.9" stroke="#8B9A7C" stroke-width="1.43" opacity="0.38" stroke-linecap="round"/>
    <line x1="69.1" y1="127.3" x2="65.9" y2="127.0" stroke="#8B9A7C" stroke-width="1.59" opacity="0.49" stroke-linecap="round"/>
    
  <circle cx="301.7" cy="60.5" r="0.72" fill="#6B6457" opacity="0.24"/>
    <circle cx="66.9" cy="69.4" r="0.67" fill="#6B6457" opacity="0.26"/>
    <circle cx="42.5" cy="42.4" r="0.56" fill="#6B6457" opacity="0.21"/>
    <circle cx="61.1" cy="93.7" r="0.62" fill="#6B6457" opacity="0.16"/>
    <circle cx="159.0" cy="39.3" r="0.63" fill="#6B6457" opacity="0.20"/>
    <circle cx="36.4" cy="94.4" r="0.87" fill="#6B6457" opacity="0.18"/>
    <circle cx="9.8" cy="6.8" r="0.88" fill="#6B6457" opacity="0.31"/>
    <circle cx="74.9" cy="135.2" r="0.80" fill="#6B6457" opacity="0.25"/>
    <circle cx="255.3" cy="126.4" r="0.58" fill="#6B6457" opacity="0.29"/>
    <circle cx="34.4" cy="132.7" r="0.88" fill="#6B6457" opacity="0.24"/>
    <circle cx="201.7" cy="25.4" r="0.59" fill="#6B6457" opacity="0.18"/>
    <circle cx="160.9" cy="71.5" r="0.75" fill="#6B6457" opacity="0.16"/>
    <circle cx="224.8" cy="41.0" r="1.02" fill="#6B6457" opacity="0.18"/>
    <circle cx="25.0" cy="105.2" r="0.69" fill="#6B6457" opacity="0.20"/>
    <circle cx="91.8" cy="121.8" r="0.91" fill="#6B6457" opacity="0.31"/>
    <circle cx="30.8" cy="90.1" r="1.18" fill="#6B6457" opacity="0.27"/>
    <circle cx="278.3" cy="2.5" r="0.88" fill="#6B6457" opacity="0.25"/>
    <circle cx="143.7" cy="39.6" r="0.76" fill="#6B6457" opacity="0.19"/>
    <circle cx="191.0" cy="66.1" r="0.79" fill="#6B6457" opacity="0.25"/>
    <circle cx="203.0" cy="109.9" r="0.99" fill="#6B6457" opacity="0.28"/>
    <circle cx="97.4" cy="65.3" r="1.14" fill="#6B6457" opacity="0.23"/>
    <circle cx="216.8" cy="24.3" r="0.56" fill="#6B6457" opacity="0.28"/>
    <circle cx="236.2" cy="30.1" r="0.89" fill="#6B6457" opacity="0.19"/>
    <circle cx="220.1" cy="81.3" r="1.20" fill="#6B6457" opacity="0.17"/>
    <circle cx="54.9" cy="4.4" r="0.69" fill="#6B6457" opacity="0.16"/>
    <circle cx="162.3" cy="116.0" r="0.78" fill="#6B6457" opacity="0.26"/>
    <circle cx="153.5" cy="93.7" r="1.14" fill="#6B6457" opacity="0.18"/>
    <circle cx="220.2" cy="38.1" r="0.79" fill="#6B6457" opacity="0.17"/>
    <circle cx="101.4" cy="117.4" r="0.57" fill="#6B6457" opacity="0.24"/>
    <circle cx="78.8" cy="113.5" r="0.94" fill="#6B6457" opacity="0.24"/>
    <circle cx="190.7" cy="88.3" r="0.58" fill="#6B6457" opacity="0.23"/>
    <circle cx="222.6" cy="89.3" r="0.72" fill="#6B6457" opacity="0.29"/>
    <circle cx="263.9" cy="2.5" r="0.50" fill="#6B6457" opacity="0.18"/>
    <circle cx="136.2" cy="16.4" r="1.14" fill="#6B6457" opacity="0.21"/>
    <circle cx="195.1" cy="117.2" r="0.77" fill="#6B6457" opacity="0.18"/>
    <circle cx="181.0" cy="58.2" r="0.70" fill="#6B6457" opacity="0.18"/>
    <circle cx="56.0" cy="85.5" r="0.74" fill="#6B6457" opacity="0.23"/>
    <circle cx="15.4" cy="14.4" r="0.72" fill="#6B6457" opacity="0.25"/>
    <circle cx="219.7" cy="14.9" r="1.15" fill="#6B6457" opacity="0.26"/>
    <circle cx="265.6" cy="117.2" r="0.51" fill="#6B6457" opacity="0.30"/>
    <circle cx="121.1" cy="121.1" r="0.66" fill="#6B6457" opacity="0.20"/>
    <circle cx="206.4" cy="101.4" r="0.52" fill="#6B6457" opacity="0.29"/>
    <circle cx="172.3" cy="77.2" r="0.76" fill="#6B6457" opacity="0.27"/>
    <circle cx="287.4" cy="16.0" r="0.89" fill="#6B6457" opacity="0.25"/>
    <circle cx="104.8" cy="25.0" r="0.92" fill="#6B6457" opacity="0.26"/>
    <circle cx="109.7" cy="95.2" r="0.96" fill="#6B6457" opacity="0.31"/>
    <circle cx="176.1" cy="121.6" r="0.71" fill="#6B6457" opacity="0.21"/>
    <circle cx="55.0" cy="135.9" r="0.57" fill="#6B6457" opacity="0.26"/>
    <circle cx="254.9" cy="130.6" r="0.69" fill="#6B6457" opacity="0.30"/>
    <circle cx="164.9" cy="19.0" r="0.78" fill="#6B6457" opacity="0.18"/>
    <circle cx="229.2" cy="115.5" r="1.01" fill="#6B6457" opacity="0.27"/>
    <circle cx="216.0" cy="0.4" r="1.15" fill="#6B6457" opacity="0.30"/>
    <circle cx="81.9" cy="5.2" r="1.11" fill="#6B6457" opacity="0.25"/>
    <circle cx="276.1" cy="135.6" r="0.53" fill="#6B6457" opacity="0.27"/>
    <circle cx="72.0" cy="32.3" r="0.72" fill="#6B6457" opacity="0.21"/>
    
</svg>
