<svg xmlns="http://www.w3.org/2000/svg" viewBox="0 0 800 600" preserveAspectRatio="xMidYMid slice">
  <defs>
    <linearGradient id="recGrad" x1="0" y1="0" x2="1" y2="1">
      <stop offset="0%" stop-color="#9CA98F"/>
      <stop offset="100%" stop-color="#6E7D64"/>
    </linearGradient>
  </defs>
  <rect width="800" height="600" fill="url(#recGrad)"/>

  <!-- anillos entrelazados -->
  <g stroke="#F3F5EE" stroke-width="3" fill="none" opacity="0.55">
    <circle cx="367" cy="210" r="48"/>
    <circle cx="433" cy="210" r="48"/>
  </g>
  <path d="M355 176 L361 172 L367 176 L361 182 Z" fill="#F9F8F3" opacity="0.55"/>

  <!-- copas brindando -->
  <g fill="none" stroke="#F3F5EE" stroke-width="3" stroke-linecap="round" stroke-linejoin="round" opacity="0.55">
    <g transform="rotate(-14 300 430)">
      <path d="M278 350 C 278 372, 292 384, 300 384 C 308 384, 322 372, 322 350 C 322 350, 300 358, 278 350 Z"/>
      <path d="M300 384 L300 430"/>
      <path d="M284 444 L316 444"/>
      <path d="M300 430 L300 444"/>
    </g>
    <g transform="rotate(14 500 430)">
      <path d="M478 350 C 478 372, 492 384, 500 384 C 508 384, 522 372, 522 350 C 522 350, 500 358, 478 350 Z"/>
      <path d="M500 384 L500 430"/>
      <path d="M484 444 L516 444"/>
      <path d="M500 430 L500 444"/>
    </g>
    <path d="M322 358 C 340 350, 350 344, 360 334" stroke-width="2" opacity="0.6"/>
    <path d="M478 358 C 460 350, 450 344, 440 334" stroke-width="2" opacity="0.6"/>
  </g>
  <g fill="#F9F8F3" opacity="0.5">
    <circle cx="345" cy="352" r="2.4"/>
    <circle cx="455" cy="352" r="2.4"/>
    <circle cx="400" cy="340" r="2.4"/>
  </g>

  <!-- torta -->
  <g transform="translate(600,460)" fill="none" stroke="#F3F5EE" stroke-width="2.5" stroke-linecap="round" stroke-linejoin="round" opacity="0.55">
    <path d="M-30 40 L-30 20 C -30 20, -24 24, -18 20 C -12 16, -6 24, 0 20 C 6 16, 12 24, 18 20 C 24 16, 30 20, 30 20 L 30 40 Z"/>
    <path d="M-22 40 L-22 60 L 22 60 L 22 40"/>
    <path d="M-2 8 L-2 -4"/>
    <path d="M-2 -4 C -6 -8, -6 -14, -2 -18 C 2 -14, 2 -8, -2 -4 Z"/>
  </g>

  <!-- destello -->
  <path d="M180 470 L184 482 L196 486 L184 490 L180 502 L176 490 L164 486 L176 482 Z" fill="#F9F8F3" opacity="0.5"/>

  <text x="50%" y="93%" text-anchor="middle" font-family="Georgia, serif" font-size="20" fill="#F3F5EE" opacity="0.55" letter-spacing="3">RECEPCIÓN</text>
</svg>